{
	"asset":{
		"generator":"Khronos glTF Blender I/O v4.0.44",
		"version":"2.0"
	},
	"scene":0,
	"scenes":[
		{
			"name":"Scene",
			"nodes":[
				0,
				1
			]
		}
	],
	"nodes":[
		{
			"mesh":0,
			"name":"Uzi Tshirt",
			"rotation":[
				0.7070435285568237,
				-0.009456493891775608,
				0.009456492960453033,
				0.7070435881614685
			],
			"scale":[
				0.009999999776482582,
				0.009999999776482582,
				0.009999999776482582
			],
			"translation":[
				-2.3504257202148438,
				1.3811535835266113,
				-0.0009134692372754216
			]
		},
		{
			"mesh":1,
			"name":"TshirtFront",
			"rotation":[
				0.7070435285568237,
				-0.009456493891775608,
				0.009456492960453033,
				0.7070435881614685
			],
			"scale":[
				0.009999999776482582,
				0.009999999776482582,
				0.009999999776482582
			],
			"translation":[
				-2.3504257202148438,
				1.3811535835266113,
				-0.0009134692372754216
			]
		}
	],
	"materials":[
		{
			"doubleSided":true,
			"name":"Material.002",
			"pbrMetallicRoughness":{
				"baseColorFactor":[
					0.800000011920929,
					0.800000011920929,
					0.800000011920929,
					1
				],
				"metallicFactor":0,
				"roughnessFactor":0.5
			}
		}
	],
	"meshes":[
		{
			"name":"lol.001",
			"primitives":[
				{
					"attributes":{
						"POSITION":0,
						"NORMAL":1,
						"TEXCOORD_0":2
					},
					"indices":3,
					"material":0
				}
			]
		},
		{
			"name":"lol.002",
			"primitives":[
				{
					"attributes":{
						"POSITION":4,
						"NORMAL":5,
						"TEXCOORD_0":6
					},
					"indices":7,
					"material":0
				}
			]
		}
	],
	"accessors":[
		{
			"bufferView":0,
			"componentType":5126,
			"count":21500,
			"max":[
				34.821170806884766,
				14.502225875854492,
				33.55796813964844
			],
			"min":[
				-35.169429779052734,
				-14.709778785705566,
				-28.609359741210938
			],
			"type":"VEC3"
		},
		{
			"bufferView":1,
			"componentType":5126,
			"count":21500,
			"type":"VEC3"
		},
		{
			"bufferView":2,
			"componentType":5126,
			"count":21500,
			"type":"VEC2"
		},
		{
			"bufferView":3,
			"componentType":5123,
			"count":123216,
			"type":"SCALAR"
		},
		{
			"bufferView":4,
			"componentType":5126,
			"count":150,
			"max":[
				12.811917304992676,
				13.591583251953125,
				8.642461776733398
			],
			"min":[
				-13.654829025268555,
				9.957528114318848,
				-13.770539283752441
			],
			"type":"VEC3"
		},
		{
			"bufferView":5,
			"componentType":5126,
			"count":150,
			"type":"VEC3"
		},
		{
			"bufferView":6,
			"componentType":5126,
			"count":150,
			"type":"VEC2"
		},
		{
			"bufferView":7,
			"componentType":5123,
			"count":756,
			"type":"SCALAR"
		}
	],
	"bufferViews":[
		{
			"buffer":0,
			"byteLength":258000,
			"byteOffset":0,
			"target":34962
		},
		{
			"buffer":0,
			"byteLength":258000,
			"byteOffset":258000,
			"target":34962
		},
		{
			"buffer":0,
			"byteLength":172000,
			"byteOffset":516000,
			"target":34962
		},
		{
			"buffer":0,
			"byteLength":246432,
			"byteOffset":688000,
			"target":34963
		},
		{
			"buffer":0,
			"byteLength":1800,
			"byteOffset":934432,
			"target":34962
		},
		{
			"buffer":0,
			"byteLength":1800,
			"byteOffset":936232,
			"target":34962
		},
		{
			"buffer":0,
			"byteLength":1200,
			"byteOffset":938032,
			"target":34962
		},
		{
			"buffer":0,
			"byteLength":1512,
			"byteOffset":939232,
			"target":34963
		}
	],
	"buffers":[
		{
			"byteLength":940744,
			"uri":"finalmodel.bin"
		}
	]
}
